<svg width="100%" height="100%" viewBox="0 0 200 42" fill="none" xmlns="http://www.w3.org/2000/svg">
<path fill-rule="evenodd" clip-rule="evenodd" d="M0 0H200V39.3638H0V0ZM184.185 15.3277L179.722 1.59046L175.258 15.3277H160.814L172.5 23.8178L168.036 37.555L179.722 29.0649L191.407 37.555L186.944 23.8178L198.629 15.3277H184.185ZM20.6759 1.59046L25.1394 15.3277H39.5836L27.898 23.8178L32.3615 37.555L20.6759 29.0649L8.99035 37.555L13.4538 23.8178L1.76826 15.3277H16.2124L20.6759 1.59046ZM64.9009 15.3277L60.4374 1.59046L55.9739 15.3277H41.5297L53.2153 23.8178L48.7518 37.555L60.4374 29.0649L72.123 37.555L67.6595 23.8178L79.3451 15.3277H64.9009ZM100.199 1.59046L104.662 15.3277H119.106L107.421 23.8178L111.884 37.555L100.199 29.0649L88.5132 37.555L92.9767 23.8178L81.2911 15.3277H95.7353L100.199 1.59046ZM144.424 15.3277L139.96 1.59046L135.497 15.3277H121.053L132.738 23.8178L128.275 37.555L139.96 29.0649L151.646 37.555L147.182 23.8178L158.868 15.3277H144.424Z" fill="white"/>
<path d="M20.9134 1.5132C20.8799 1.41019 20.7839 1.34045 20.6756 1.34045C20.5673 1.34045 20.4713 1.41019 20.4379 1.5132L16.0305 15.0777H1.76795C1.65965 15.0777 1.56366 15.1474 1.53019 15.2504C1.49672 15.3534 1.53339 15.4663 1.62101 15.5299L13.1597 23.9133L8.75228 37.4778C8.71881 37.5808 8.75548 37.6936 8.8431 37.7573C8.93072 37.8209 9.04937 37.8209 9.13699 37.7573L20.6756 29.3739L32.2143 37.7573C32.3019 37.8209 32.4206 37.8209 32.5082 37.7573C32.5958 37.6936 32.6325 37.5808 32.599 37.4778L28.1916 23.9133L39.7303 15.5299C39.8179 15.4663 39.8546 15.3534 39.8211 15.2504C39.7876 15.1474 39.6916 15.0777 39.5833 15.0777H25.3208L20.9134 1.5132Z" stroke="#C5C5C5" stroke-width="0.5" stroke-linejoin="round"/>
<path d="M60.6751 1.5132C60.6417 1.41019 60.5457 1.34045 60.4374 1.34045C60.3291 1.34045 60.2331 1.41019 60.1996 1.5132L55.7922 15.0777H41.5297C41.4214 15.0777 41.3254 15.1474 41.2919 15.2504C41.2584 15.3534 41.2951 15.4663 41.3827 15.5299L52.9214 23.9133L48.514 37.4778C48.4805 37.5808 48.5172 37.6936 48.6048 37.7573C48.6924 37.8209 48.8111 37.8209 48.8987 37.7573L60.4374 29.3739L71.976 37.7573C72.0636 37.8209 72.1823 37.8209 72.2699 37.7573C72.3575 37.6936 72.3942 37.5808 72.3607 37.4778L67.9533 23.9133L79.492 15.5299C79.5796 15.4663 79.6163 15.3534 79.5828 15.2504C79.5493 15.1474 79.4533 15.0777 79.345 15.0777H65.0825L60.6751 1.5132Z" stroke="#C5C5C5" stroke-width="0.5" stroke-linejoin="round"/>
<path d="M100.437 1.5132C100.403 1.41019 100.307 1.34045 100.199 1.34045C100.091 1.34045 99.9948 1.41019 99.9613 1.5132L95.5539 15.0777H81.2914C81.1831 15.0777 81.0871 15.1474 81.0536 15.2504C81.0202 15.3534 81.0568 15.4663 81.1444 15.5299L92.6831 23.9133L88.2757 37.4778C88.2423 37.5808 88.2789 37.6936 88.3665 37.7573C88.4542 37.8209 88.5728 37.8209 88.6604 37.7573L100.199 29.3739L111.738 37.7573C111.825 37.8209 111.944 37.8209 112.032 37.7573C112.119 37.6936 112.156 37.5808 112.122 37.4778L107.715 23.9133L119.254 15.5299C119.341 15.4663 119.378 15.3534 119.345 15.2504C119.311 15.1474 119.215 15.0777 119.107 15.0777H104.844L100.437 1.5132Z" stroke="#C5C5C5" stroke-width="0.5" stroke-linejoin="round"/>
<path d="M140.199 1.5132C140.165 1.41019 140.069 1.34045 139.961 1.34045C139.852 1.34045 139.756 1.41019 139.723 1.5132L135.316 15.0777H121.053C120.945 15.0777 120.849 15.1474 120.815 15.2504C120.782 15.3534 120.819 15.4663 120.906 15.5299L132.445 23.9133L128.037 37.4778C128.004 37.5808 128.041 37.6936 128.128 37.7573C128.216 37.8209 128.335 37.8209 128.422 37.7573L139.961 29.3739L151.499 37.7573C151.587 37.8209 151.706 37.8209 151.793 37.7573C151.881 37.6936 151.918 37.5808 151.884 37.4778L147.477 23.9133L159.015 15.5299C159.103 15.4663 159.14 15.3534 159.106 15.2504C159.073 15.1474 158.977 15.0777 158.868 15.0777H144.606L140.199 1.5132Z" stroke="#C5C5C5" stroke-width="0.5" stroke-linejoin="round"/>
<path d="M179.959 1.5132C179.926 1.41019 179.83 1.34045 179.722 1.34045C179.613 1.34045 179.517 1.41019 179.484 1.5132L175.076 15.0777H160.814C160.706 15.0777 160.61 15.1474 160.576 15.2504C160.543 15.3534 160.579 15.4663 160.667 15.5299L172.206 23.9133L167.798 37.4778C167.765 37.5808 167.801 37.6936 167.889 37.7573C167.977 37.8209 168.095 37.8209 168.183 37.7573L179.722 29.3739L191.26 37.7573C191.348 37.8209 191.466 37.8209 191.554 37.7573C191.642 37.6936 191.678 37.5808 191.645 37.4778L187.238 23.9133L198.776 15.5299C198.864 15.4663 198.9 15.3534 198.867 15.2504C198.834 15.1474 198.738 15.0777 198.629 15.0777H184.367L179.959 1.5132Z" stroke="#C5C5C5" stroke-width="0.5" stroke-linejoin="round"/>
</svg>
